<?xml version="1.0" encoding="UTF-8"?>
<svg id="Camada_2" data-name="Camada 2" xmlns="http://www.w3.org/2000/svg" viewBox="0 0 300.03 79.21">
  <defs>
    <style>
      .cls-1 {
        fill: #0a8;
      }

      .cls-1, .cls-2, .cls-3, .cls-4 {
        stroke-width: 0px;
      }

      .cls-2 {
        fill: #aa87de;
      }

      .cls-3 {
        fill: #fff;
      }

      .cls-4 {
        fill: #d35f5f;
      }
    </style>
  </defs>
  <g id="Camada_1-2" data-name="Camada 1">
    <rect class="cls-4" y=".71" width="22.42" height="48.53"/>
    <rect class="cls-1" y="52.8" width="22.42" height="22.42"/>
    <rect class="cls-2" x="25.99" y="52.8" width="22.42" height="22.42"/>
    <g>
      <path class="cls-3" d="m48.42,49.24h-22.43S25.99.71,25.99.71h7.76v41.84h14.67s0,6.69,0,6.69Z"/>
      <path class="cls-3" d="m76.43,8.04v41.2h-7.19v-4.2c-.57,1.64-2.85,4.48-8.4,4.48-6.33,0-9.39-4.27-9.39-10.17V8.04h7.54v30.03c0,3.13,1.71,4.84,4.77,4.84,2.7,0,5.05-1.71,5.05-4.7V8.04h7.61Z"/>
      <path class="cls-3" d="m93.15,49.66c-6.69,0-10.32-3.56-10.32-9.89v-2.13c0-5.19,2.85-8.11,8.33-10.03l9.53-3.34v-5.62c0-3.06-1.42-4.55-4.98-4.55s-4.98,1.49-4.98,4.55v2.7h-7.54v-2.63c0-7.4,4.41-11.38,12.52-11.38s12.52,3.98,12.52,11.38v30.52h-7.4v-3.98c-.57,1.57-2.49,4.41-7.68,4.41Zm2.06-6.19c3.91,0,5.48-2.06,5.48-4.84v-7.9l-6.12,2.13c-3.13,1-4.2,2.28-4.2,4.91v1.35c0,2.85,1.5,4.34,4.84,4.34Z"/>
      <path class="cls-3" d="m116.13,49.24V8.04h7.19v4.2c.78-1.71,3.34-4.48,8.25-4.48,6.05,0,9.53,3.98,9.53,9.89v31.59h-7.61v-30.03c0-3.13-1.71-4.84-4.77-4.84-2.7,0-5.05,1.71-5.05,4.77v30.1h-7.54Z"/>
      <path class="cls-3" d="m160.16,11.95c0-6.9,4.27-11.95,13.38-11.95s13.38,5.05,13.38,11.95v3.49h-7.68v-3.13c0-3.13-1.64-5.27-5.69-5.27s-5.69,2.06-5.69,5.27v25.33c0,3.2,1.49,5.26,5.55,5.26s5.83-2.06,5.83-5.26v-8.25h-4.7v-6.69h12.38v26.54h-7.33v-3.98c-.71,1.42-2.99,4.48-8.18,4.48-7.83,0-11.24-4.98-11.24-11.67V11.95Z"/>
      <path class="cls-3" d="m203.71,49.66c-6.69,0-10.32-3.56-10.32-9.89v-2.13c0-5.19,2.85-8.11,8.33-10.03l9.53-3.34v-5.62c0-3.06-1.42-4.55-4.98-4.55s-4.98,1.49-4.98,4.55v2.7h-7.54v-2.63c0-7.4,4.41-11.38,12.52-11.38s12.52,3.98,12.52,11.38v30.52h-7.4v-3.98c-.57,1.57-2.49,4.41-7.68,4.41Zm2.06-6.19c3.91,0,5.48-2.06,5.48-4.84v-7.9l-6.12,2.13c-3.13,1-4.2,2.28-4.2,4.91v1.35c0,2.85,1.49,4.34,4.84,4.34Z"/>
      <path class="cls-3" d="m226.68,49.24V8.04h7.19v4.2c.78-1.71,3.27-4.48,8.11-4.48,4.27,0,7.19,1.92,8.54,5.12,1-2.21,3.63-5.12,8.61-5.12,6.12,0,9.39,3.98,9.39,9.89v31.59h-7.61v-30.03c0-3.13-1.49-4.84-4.55-4.84-2.7,0-4.98,1.71-4.98,4.77v30.1h-7.61v-30.03c0-3.13-1.49-4.84-4.55-4.84-2.77,0-4.98,1.71-4.98,4.77v30.1h-7.54Z"/>
      <path class="cls-3" d="m284.95,49.66c-6.69,0-10.32-3.56-10.32-9.89v-2.13c0-5.19,2.85-8.11,8.33-10.03l9.53-3.34v-5.62c0-3.06-1.42-4.55-4.98-4.55s-4.98,1.49-4.98,4.55v2.7h-7.54v-2.63c0-7.4,4.41-11.38,12.52-11.38s12.52,3.98,12.52,11.38v30.52h-7.4v-3.98c-.57,1.57-2.49,4.41-7.68,4.41Zm2.06-6.19c3.91,0,5.48-2.06,5.48-4.84v-7.9l-6.12,2.13c-3.13,1-4.2,2.28-4.2,4.91v1.35c0,2.85,1.5,4.34,4.84,4.34Z"/>
    </g>
    <g>
      <path class="cls-3" d="m190.21,68.49c.58,3.03,1.06,5.98,1.06,6.13,0-.15.45-3.05.98-6.08l1.34-7.37h1.46l-2.67,14.25h-2.14l-1.19-5.88c-.71-3.58-1.06-5.98-1.06-5.98,0,0-.35,2.35-1.08,5.98l-1.16,5.88h-2.14l-2.67-14.25h1.46l1.31,7.32c.55,3.05.98,6.05.98,6.13,0-.15.48-3.03,1.08-6.13l1.44-7.32h1.56l1.44,7.32Z"/>
      <path class="cls-3" d="m205.12,64.81v3.88h-6.56v3.1c0,1.54.66,2.57,2.57,2.57s2.55-1.03,2.55-2.57v-.88h1.44v.86c0,2.25-1.21,3.91-3.99,3.91s-4.01-1.67-4.01-3.91v-6.96c0-2.22,1.21-3.88,4.01-3.88s3.99,1.67,3.99,3.88Zm-6.56,2.62h5.12v-2.62c0-1.54-.66-2.6-2.55-2.6s-2.57,1.06-2.57,2.6v2.62Z"/>
      <path class="cls-3" d="m209.97,57.37v5.22c.2-.45.96-1.54,2.95-1.54,2.14,0,3.43,1.39,3.43,3.66v6.91c0,2.37-1.49,3.81-3.71,3.81h-4.09v-18.06h1.41Zm.03,16.77h2.32c1.67,0,2.6-.88,2.6-2.55v-6.83c0-1.56-.81-2.42-2.35-2.42-1.41,0-2.57.83-2.57,2.35v9.46Z"/>
      <path class="cls-3" d="m224.02,64.96c0-2.3,1.31-3.68,3.46-3.68,1.97,0,2.72,1.11,2.9,1.51v-5.42h1.44v18.06h-1.41v-1.44c-.2.43-.96,1.51-2.95,1.51-2.17,0-3.43-1.39-3.43-3.66v-6.89Zm6.36-.05c0-1.51-1.16-2.32-2.57-2.32-1.56,0-2.35.83-2.35,2.4v6.81c0,1.56.78,2.42,2.35,2.42,1.41,0,2.57-.83,2.57-2.35v-6.96Z"/>
      <path class="cls-3" d="m243.24,64.81v3.88h-6.56v3.1c0,1.54.66,2.57,2.57,2.57s2.55-1.03,2.55-2.57v-.88h1.44v.86c0,2.25-1.21,3.91-3.99,3.91s-4.01-1.67-4.01-3.91v-6.96c0-2.22,1.21-3.88,4.01-3.88s3.99,1.67,3.99,3.88Zm-6.56,2.62h5.12v-2.62c0-1.54-.66-2.6-2.55-2.6s-2.57,1.06-2.57,2.6v2.62Z"/>
      <path class="cls-3" d="m251.36,68.27c1.46.63,2.42,1.67,2.42,3.2v.55c0,2.22-1.21,3.66-3.99,3.66s-3.88-1.46-3.88-3.71v-.58h1.44v.61c0,1.54.55,2.4,2.45,2.4s2.55-.81,2.55-2.37v-.45c0-.98-.4-1.59-1.69-2.12l-2.4-1.06c-1.44-.61-2.22-1.69-2.22-3.33v-.45c0-2.22,1.03-3.68,3.83-3.68s3.81,1.49,3.81,3.71v.63h-1.46v-.66c0-1.54-.45-2.4-2.35-2.4s-2.42.83-2.42,2.37v.33c0,1.24.45,1.84,1.59,2.32l2.32,1.03Z"/>
      <path class="cls-3" d="m258.37,58.25c0,.53-.25.91-.93.91s-.93-.38-.93-.91.25-.93.93-.93.93.4.93.93Zm-1.67,2.95h1.44v14.23h-1.44v-14.23Z"/>
      <path class="cls-3" d="m261.1,77.04c1.01.55,2.07.86,3.81.86h.98c2.29,0,3.08-.68,3.08-1.79v-.28c0-.96-.25-1.64-1.99-1.64h-1.51c-1.94,0-3.03-.78-3.03-2.14v-.4c0-.91.58-1.46,1.29-1.64-1.72-.48-2.52-1.71-2.52-3.46v-1.99c0-2.19,1.29-3.63,4.11-3.63,1.19,0,2.09.25,2.75.71.3-.96,1.11-1.44,2.19-1.44h.38v1.46h-.83c-.53,0-.93.15-1.24.43.55.63.83,1.46.83,2.47v1.99c0,2.19-1.29,3.63-4.09,3.63-1.03,0-1.56.48-1.56,1.46,0,.86.45,1.26,1.77,1.26h1.49c2.45,0,3.41,1.06,3.41,2.9v.28c0,1.92-1.21,3.13-4.46,3.13h-1.03c-1.76,0-3.05-.33-3.81-.76v-1.41Zm6.86-12.49c0-1.54-.76-2.37-2.65-2.37s-2.67.83-2.67,2.37v1.99c0,1.54.76,2.37,2.67,2.37s2.65-.83,2.65-2.37v-1.99Z"/>
      <path class="cls-3" d="m272.73,75.43v-14.25h1.41v1.49c.18-.45,1.03-1.56,2.98-1.56,2.14,0,3.4,1.39,3.4,3.63v10.69h-1.44v-10.62c0-1.56-.76-2.42-2.35-2.42-1.29,0-2.57.83-2.57,2.35v10.69h-1.44Z"/>
      <path class="cls-3" d="m291.82,64.81v3.88h-6.56v3.1c0,1.54.66,2.57,2.57,2.57s2.55-1.03,2.55-2.57v-.88h1.44v.86c0,2.25-1.21,3.91-3.99,3.91s-4.01-1.67-4.01-3.91v-6.96c0-2.22,1.21-3.88,4.01-3.88s3.99,1.67,3.99,3.88Zm-6.56,2.62h5.12v-2.62c0-1.54-.66-2.6-2.55-2.6s-2.57,1.06-2.57,2.6v2.62Z"/>
      <path class="cls-3" d="m300.02,62.59c-.25-.05-.53-.08-.98-.08-1.24,0-2.35.98-2.35,2.5v10.42h-1.44v-14.25h1.41v1.77c.2-.76,1.06-1.84,2.88-1.84.18,0,.33,0,.48.03v1.46Z"/>
    </g>
  </g>
</svg>